<?xml version="1.0" encoding="UTF-8"?>
<svg enable-background="new 0 0 40 40" version="1.1" viewBox="0 0 40 40" xml:space="preserve" xmlns="http://www.w3.org/2000/svg" xmlns:cc="http://creativecommons.org/ns#" xmlns:dc="http://purl.org/dc/elements/1.1/" xmlns:rdf="http://www.w3.org/1999/02/22-rdf-syntax-ns#"><metadata><rdf:RDF><cc:Work rdf:about=""><dc:format>image/svg+xml</dc:format><dc:type rdf:resource="http://purl.org/dc/dcmitype/StillImage"/></cc:Work></rdf:RDF></metadata>
    <style type="text/css">
	.st0{fill:#121240;}
	.st1{opacity:0.39;}
	.st2{fill:url(#d);}
	.st3{opacity:0.56;}
	.st4{fill:url(#c);}
	.st5{opacity:0.53;}
	.st6{fill:url(#b);}
	.st7{fill:url(#a);}
	.st8{fill:#EEF2F5;}
	.st9{fill:#E0E3E5;}
	.st10{fill:#E7EAEC;}
</style>
    <rect class="st0" x="2" y="2" width="36" height="36"/>
    <g class="st1">
				<linearGradient id="d" x1="18" x2="26.047" y1="30.854" y2="16.912" gradientTransform="translate(-2)" gradientUnits="userSpaceOnUse">
				<stop stop-color="#FDA57A" offset="0"/>
                    <stop stop-color="#F99F80" offset=".15"/>
                    <stop stop-color="#EC8F90" offset=".35"/>
                    <stop stop-color="#D773AB" offset=".58"/>
                    <stop stop-color="#BB4DD1" offset=".83"/>
                    <stop stop-color="#A32EF0" offset="1"/>
			</linearGradient>
        <path class="st2" d="m11.5 26.9v-5.9c0-0.8 0.4-1.6 1.2-2.1l6.1-3.7c0.8-0.5 1.7-0.5 2.5 0l6.1 3.7c0.7 0.4 1.2 1.2 1.2 2.1v5.7c0 0.9-0.5 1.6-1.2 2.1l-6.1 3.6c-0.7 0.4-1.7 0.4-2.4 0l-6-3.5c-0.9-0.4-1.4-1.1-1.4-2z"/>
		</g>
    <g class="st3">
				<linearGradient id="c" x1="17.999" x2="26.047" y1="28.254" y2="14.312" gradientTransform="translate(-2)" gradientUnits="userSpaceOnUse">
				<stop stop-color="#FDA57A" offset="0"/>
                    <stop stop-color="#EF928C" offset=".2"/>
                    <stop stop-color="#CB62BC" offset=".61"/>
                    <stop stop-color="#A32EF0" offset="1"/>
			</linearGradient>
        <path class="st4" d="m11.5 24.3v-5.9c0-0.8 0.4-1.6 1.2-2.1l6.1-3.7c0.8-0.5 1.7-0.5 2.5 0l6.1 3.7c0.7 0.4 1.2 1.2 1.2 2.1v5.7c0 0.9-0.5 1.6-1.2 2.1l-6.1 3.6c-0.7 0.4-1.7 0.4-2.4 0l-6-3.5c-0.9-0.4-1.4-1.1-1.4-2z"/>
		</g>
    <g class="st5">
				<linearGradient id="b" x1="18.012" x2="26.06" y1="25.632" y2="11.689" gradientTransform="translate(-2)" gradientUnits="userSpaceOnUse">
				<stop stop-color="#FDA57A" offset="0"/>
                    <stop stop-color="#EF928C" offset=".2"/>
                    <stop stop-color="#CB62BC" offset=".61"/>
                    <stop stop-color="#A32EF0" offset="1"/>
			</linearGradient>
        <path class="st6" d="m11.5 21.7v-5.9c0-0.8 0.4-1.6 1.2-2.1l6.1-3.7c0.8-0.5 1.7-0.5 2.5 0l6.1 3.7c0.7 0.4 1.2 1.2 1.2 2.1v5.7c0 0.9-0.5 1.6-1.2 2.1l-6.1 3.6c-0.7 0.4-1.7 0.4-2.4 0l-6-3.5c-0.9-0.4-1.4-1.2-1.4-2z"/>
		</g>
    <linearGradient id="a" x1="18.008" x2="26.055" y1="22.639" y2="8.6968" gradientTransform="translate(-2)" gradientUnits="userSpaceOnUse">
			<stop stop-color="#FDA57A" offset="0"/>
        <stop stop-color="#EF928C" offset=".2"/>
        <stop stop-color="#CB62BC" offset=".61"/>
        <stop stop-color="#A32EF0" offset="1"/>
		</linearGradient>
    <path class="st7" d="m11.5 18.7v-5.9c0-0.8 0.4-1.6 1.2-2.1l6.1-3.7c0.8-0.5 1.7-0.5 2.5 0l6.1 3.7c0.7 0.4 1.2 1.2 1.2 2.1v5.7c0 0.9-0.5 1.6-1.2 2.1l-6.1 3.6c-0.7 0.4-1.7 0.4-2.4 0l-6-3.5c-0.9-0.4-1.4-1.2-1.4-2z"/>
    <path class="st8" d="m14.201 13.4c0-0.1 0.09914-0.2 0.09914-0.3 0.09914-0.3 0.29741-0.5 0.59483-0.7 0.39655-0.3 1.8836-1.3 4.1638-2.6 0.59483-0.4 1.3879-0.3 1.9828 0.1 0.39655 0.3 0.7931 0.5 1.0905 0.7l1.5862 0.9 0.49569 0.3c0.39655 0.2 0.7931 0.4 1.0905 0.7 0.19828 0.2 0.39655 0.5 0.49569 0.8l-5.5517 3.7z" fill="#eef2f5" stroke-width=".99568"/>
    <path class="st9" d="m19.927 21.503 0.20438-4.7595c-0.06622-0.16286-0.06622-0.2098-0.09744-0.40576l0.10769-0.29111c0.10124-0.28987 0.64686-0.52043 0.84934-0.71368 2.4297-1.3527 3.593-1.9463 3.7955-2.0429l0.20124-0.0096c0.16746-0.06352 0.60866-0.08696 0.91238 0.10628 0.10123 0.09664 0-0.09662 0 0v4.3481c0 0.19325-0.10124 0.3865-0.20248 0.57974-0.10124 0.19325-0.30372 0.3865-0.60744 0.57974l-4.3533 2.4156c-0.20248 0.09663-0.30372 0.09663-0.50619 0.09663z" fill="#e0e3e5" stroke-width=".98905"/>
    <path class="st10" d="m19.927 21.503c0.09874-2.4161 0.19748-4.1557 0.19748-4.5423v-0.67652c0-0.09665-0.09874-0.19329-0.09874-0.38658-0.19748-0.48323-1.2836-1.0631-1.2836-1.0631-0.98739-0.48323-1.4811-0.86981-3.2584-1.7396-0.09874-0.09665-0.29622-0.09665-0.39496-0.09665-0.29622-0.09665-0.4937 0-0.78992 0.09665-0.098738 0.096646-0.098738 0.19329-0.098738 0.28994v4.349c0 0.19329 0.09874 0.38658 0.19748 0.57987 0.09874 0.19329 0.29622 0.38658 0.59244 0.57987l4.2458 2.4161c0.19748 0.09665 0.29622 0.09665 0.4937 0.09665z" fill="#e7eaec" stroke-width=".97687"/>
</svg>
