<?xml version="1.0" encoding="utf-8"?>
<!-- Generator: Adobe Illustrator 23.1.0, SVG Export Plug-In . SVG Version: 6.00 Build 0)  -->
<svg version="1.1" id="Layer_1" xmlns="http://www.w3.org/2000/svg" xmlns:xlink="http://www.w3.org/1999/xlink" x="0px" y="0px"
	 viewBox="0 0 40 40" style="enable-background:new 0 0 40 40;" xml:space="preserve">
<style type="text/css">
	.st0{fill:#121240;}
	.st1{opacity:0.39;}
	.st2{fill:url(#SVGID_1_);}
	.st3{opacity:0.56;}
	.st4{fill:url(#SVGID_2_);}
	.st5{opacity:0.53;}
	.st6{fill:url(#SVGID_3_);}
	.st7{fill:url(#SVGID_4_);}
	.st8{fill:#EEF2F5;}
	.st9{fill:#E0E3E5;}
	.st10{fill:#E7EAEC;}
</style>
<g>
	<g>
		<rect x="2" y="2" class="st0" width="36" height="36"/>
		<g class="st1">
			
				<linearGradient id="SVGID_1_" gradientUnits="userSpaceOnUse" x1="17.9995" y1="30.8543" x2="26.0467" y2="16.9118" gradientTransform="matrix(1 0 0 1 -2 0)">
				<stop  offset="0" style="stop-color:#FDA57A"/>
				<stop  offset="0.15" style="stop-color:#F99F80"/>
				<stop  offset="0.35" style="stop-color:#EC8F90"/>
				<stop  offset="0.58" style="stop-color:#D773AB"/>
				<stop  offset="0.83" style="stop-color:#BB4DD1"/>
				<stop  offset="1" style="stop-color:#A32EF0"/>
			</linearGradient>
			<path class="st2" d="M11.5,26.9V21c0-0.8,0.4-1.6,1.2-2.1l6.1-3.7c0.8-0.5,1.7-0.5,2.5,0l6.1,3.7c0.7,0.4,1.2,1.2,1.2,2.1v5.7
				c0,0.9-0.5,1.6-1.2,2.1l-6.1,3.6c-0.7,0.4-1.7,0.4-2.4,0l-6-3.5C12,28.5,11.5,27.8,11.5,26.9z"/>
		</g>
		<g class="st3">
			
				<image style="overflow:visible;opacity:0.15;enable-background:new    ;" width="966" height="1008" xlink:href="5BF94339.png"  transform="matrix(1.997929e-02 0 0 1.997929e-02 10.79 11.6504)">
			</image>
			
				<linearGradient id="SVGID_2_" gradientUnits="userSpaceOnUse" x1="17.9994" y1="28.2544" x2="26.0467" y2="14.3118" gradientTransform="matrix(1 0 0 1 -2 0)">
				<stop  offset="0" style="stop-color:#FDA57A"/>
				<stop  offset="0.2" style="stop-color:#EF928C"/>
				<stop  offset="0.61" style="stop-color:#CB62BC"/>
				<stop  offset="1" style="stop-color:#A32EF0"/>
			</linearGradient>
			<path class="st4" d="M11.5,24.3v-5.9c0-0.8,0.4-1.6,1.2-2.1l6.1-3.7c0.8-0.5,1.7-0.5,2.5,0l6.1,3.7c0.7,0.4,1.2,1.2,1.2,2.1v5.7
				c0,0.9-0.5,1.6-1.2,2.1l-6.1,3.6c-0.7,0.4-1.7,0.4-2.4,0l-6-3.5C12,25.9,11.5,25.2,11.5,24.3z"/>
		</g>
		<g class="st5">
			
				<image style="overflow:visible;opacity:0.15;enable-background:new    ;" width="966" height="1008" xlink:href="5BF9433F.png"  transform="matrix(1.997929e-02 0 0 1.997929e-02 10.79 9.0204)">
			</image>
			
				<linearGradient id="SVGID_3_" gradientUnits="userSpaceOnUse" x1="18.0124" y1="25.6319" x2="26.0597" y2="11.6893" gradientTransform="matrix(1 0 0 1 -2 0)">
				<stop  offset="0" style="stop-color:#FDA57A"/>
				<stop  offset="0.2" style="stop-color:#EF928C"/>
				<stop  offset="0.61" style="stop-color:#CB62BC"/>
				<stop  offset="1" style="stop-color:#A32EF0"/>
			</linearGradient>
			<path class="st6" d="M11.5,21.7v-5.9c0-0.8,0.4-1.6,1.2-2.1l6.1-3.7c0.8-0.5,1.7-0.5,2.5,0l6.1,3.7c0.7,0.4,1.2,1.2,1.2,2.1v5.7
				c0,0.9-0.5,1.6-1.2,2.1l-6.1,3.6c-0.7,0.4-1.7,0.4-2.4,0l-6-3.5C12,23.3,11.5,22.5,11.5,21.7z"/>
		</g>
		
			<image style="overflow:visible;opacity:0.15;enable-background:new    ;" width="966" height="1008" xlink:href="5BF9433A.png"  transform="matrix(1.997929e-02 0 0 1.997929e-02 10.79 6.0304)">
		</image>
		
			<linearGradient id="SVGID_4_" gradientUnits="userSpaceOnUse" x1="18.0081" y1="22.6394" x2="26.0553" y2="8.6968" gradientTransform="matrix(1 0 0 1 -2 0)">
			<stop  offset="0" style="stop-color:#FDA57A"/>
			<stop  offset="0.2" style="stop-color:#EF928C"/>
			<stop  offset="0.61" style="stop-color:#CB62BC"/>
			<stop  offset="1" style="stop-color:#A32EF0"/>
		</linearGradient>
		<path class="st7" d="M11.5,18.7v-5.9c0-0.8,0.4-1.6,1.2-2.1L18.8,7c0.8-0.5,1.7-0.5,2.5,0l6.1,3.7c0.7,0.4,1.2,1.2,1.2,2.1v5.7
			c0,0.9-0.5,1.6-1.2,2.1l-6.1,3.6c-0.7,0.4-1.7,0.4-2.4,0l-6-3.5C12,20.3,11.5,19.5,11.5,18.7z"/>
		<path class="st8" d="M14.1,13.4c0-0.1,0.1-0.2,0.1-0.3c0.1-0.3,0.3-0.5,0.6-0.7c0.4-0.3,1.9-1.3,4.2-2.6c0.6-0.4,1.4-0.3,2,0.1
			c0.4,0.3,0.8,0.5,1.1,0.7l0,0l1.6,0.9l0.5,0.3c0.4,0.2,0.8,0.4,1.1,0.7c0.2,0.2,0.4,0.5,0.5,0.8L20.2,17L14.1,13.4z"/>
		<path class="st9" d="M20,21.8l0.3-5.2c0-0.1,0-0.2,0.1-0.3l0.1-0.1c0.1-0.3,0.4-0.5,0.6-0.7c2.4-1.4,3.5-2.1,3.7-2.2l0.1-0.1
			c0.1-0.1,0.6-0.3,0.9-0.1c0.1,0.1,0.1,0.2,0.1,0.3v4.5c0,0.2-0.1,0.4-0.2,0.6s-0.3,0.4-0.6,0.6l-4.3,2.5c-0.2,0.1-0.3,0.1-0.5,0.1
			L20,21.8z"/>
		<path class="st10" d="M20,21.8c0.1-2.5,0.2-4.3,0.2-4.7c0-0.2,0-0.5,0-0.7c0-0.1-0.1-0.2-0.1-0.4c-0.2-0.5-1.3-1.1-1.3-1.1
			c-1-0.5-1.5-0.9-3.3-1.8C15.4,13,15.2,13,15.1,13c-0.3-0.1-0.5,0-0.8,0.1c-0.1,0.1-0.1,0.2-0.1,0.3v4.5c0,0.2,0.1,0.4,0.2,0.6
			c0.1,0.2,0.3,0.4,0.6,0.6l4.3,2.5c0.2,0.1,0.3,0.1,0.5,0.1L20,21.8z"/>
	</g>
</g>
</svg>
